<?xml version="1.0" encoding="utf-8"?>
<!-- Generator: Adobe Illustrator 22.1.0, SVG Export Plug-In . SVG Version: 6.00 Build 0)  -->
<svg version="1.1" id="Layer_1" xmlns="http://www.w3.org/2000/svg" xmlns:xlink="http://www.w3.org/1999/xlink" x="0px" y="0px"
	 viewBox="0 0 100 100" style="enable-background:new 0 0 100 100;" xml:space="preserve">
<g>
	<polygon points="85.3,66.4 32.9,83.2 25,80.6 18.4,78.3 70.8,61.5 77.6,63.8 	"/>
	<polygon points="78.6,80.5 70.7,83.2 18.3,66.4 25.5,63.9 32.8,61.5 85.3,78.3 	"/>
	<polygon points="56.1,9 52.8,13.9 56.1,18.9 59.4,13.9 	"/>
	<path d="M64,36.8l-3.4,5l-6.2-9.1l3.4-5l-6-8.9l-3.3,4.9l1.7,2.5l-5,7.5l-1.7-2.5L30.7,50l21.1,27L73,50L64,36.8z M39,56.2l12.8-19
		l12.8,19l-12.8,19L39,56.2z"/>
</g>
</svg>
