<svg id="Layer_1" data-name="Layer 1" xmlns="http://www.w3.org/2000/svg" xmlns:xlink="http://www.w3.org/1999/xlink" viewBox="0 0 473.74 334.49"><defs><style>.cls-1{fill:none;}.cls-2{font-size:208.33px;fill:#1d1618;font-family:Starling-Book, Starling;letter-spacing:-0.08em;}.cls-3{letter-spacing:-0.09em;}.cls-4{letter-spacing:-0.08em;}.cls-5{clip-path:url(#clip-path);}.cls-6{fill:#ed145b;}.cls-7{fill:#ef8a17;}</style><clipPath id="clip-path" transform="translate(-404.39 -168.46)"><path class="cls-1" d="M538,351s4.93-8.49,33-12a83.9,83.9,0,0,1,30,2s15.5,5,15.5,15.5-.5-7.5-.5-7.5l34-12,7,23,41-60L605,159,507,305l30,48Z"/></clipPath></defs><title>logo</title><text class="cls-2" transform="translate(0 273.03)">sta<tspan class="cls-3" x="201.25" y="0">r</tspan><tspan class="cls-4" x="263.54" y="0">ter</tspan></text><g class="cls-5"><polygon class="cls-6" points="203.91 0 192.38 17.12 203.91 34.58 215.43 17.12 203.91 0"/><path class="cls-7" d="M635.89,262.57,624,280l-21.65-31.79,11.87-17.47-21-31.08-11.52,17.11,5.94,8.73-17.47,26.2L564.28,243l-44.71,65.67L593.27,403l74.06-94.32Zm-87.33,67.77L593.27,264,638,330.34l-44.72,66.37Z" transform="translate(-404.39 -168.46)"/></g></svg>